<?xml version="1.0" encoding="iso-8859-1"?>
<!-- Generator: Adobe Illustrator 19.0.0, SVG Export Plug-In . SVG Version: 6.00 Build 0)  -->
<svg version="1.1" id="Capa_1" xmlns="http://www.w3.org/2000/svg" xmlns:xlink="http://www.w3.org/1999/xlink" x="0px" y="0px"
	 viewBox="0 0 512.001 512.001" style="enable-background:new 0 0 512.001 512.001;" xml:space="preserve">
<rect x="79.361" y="114.21" style="fill:#F2D788;" width="353.29" height="336.31"/>
<polygon style="fill:#FF6F52;" points="201.925,114.209 201.925,57.895 310.077,57.895 310.077,114.209 357.974,114.209 
	357.974,42.951 315.895,10 196.109,10 154.028,42.951 154.028,114.209 "/>
<path style="fill:#C49E71;" d="M79.359,450.52v25.667c0,14.256,11.557,25.813,25.813,25.813H406.83
	c14.256,0,25.813-11.557,25.813-25.813V450.52H79.359z"/>
<path d="M432.645,104.209h-64.67V42.951c0-3.074-1.414-5.978-3.835-7.873L322.06,2.127C320.299,0.749,318.129,0,315.895,0H196.108
	c-2.235,0-4.405,0.749-6.165,2.127l-42.08,32.951c-2.421,1.896-3.835,4.799-3.835,7.873v61.258h-64.67c-5.522,0-10,4.478-10,10
	v361.979c0,19.747,16.065,35.813,35.813,35.813h301.658c19.748,0,35.813-16.065,35.813-35.813V114.209
	C442.645,108.687,438.167,104.209,432.645,104.209z M164.028,47.821L199.559,20h112.887l35.529,27.821v56.388h-27.896V57.896
	c0-5.522-4.478-10-10-10H201.926c-5.522,0-10,4.478-10,10v46.313h-27.897V47.821H164.028z M211.926,104.209V67.896h88.151v36.313
	H211.926z M89.358,124.209h333.285V440.52H89.358V124.209z M422.645,476.188c0,8.719-7.094,15.813-15.813,15.813H105.172
	c-8.72,0-15.813-7.094-15.813-15.813V460.52h333.285V476.188z"/>
<g>
	<path style="fill:#11AB67;" d="M254.102,367.287h62.942c7.597,0,14.613-4.064,18.393-10.653l9.174-15.991l-0.497-0.282
		l-14.973-26.047h-74.769v0.005"/>
	<path style="fill:#11AB67;" d="M174.501,222.858l-31.392,54.609c-3.772,6.561-3.761,14.636,0.029,21.187l9.059,15.659h30.844
		l37.255-64.824h-0.001"/>
	<path style="fill:#11AB67;" d="M339.258,225.612l0.002-0.001l-31.372-54.575c-3.783-6.581-10.794-10.637-18.384-10.637h-18.292
		v0.508l-15.129,26.321c0.005,0,37.108,64.553,37.108,64.553l0.004-0.002"/>
</g>
<g>
	<path style="fill:#34E184;" d="M237.546,299.899h-0.274c-3.218,0-5.827,2.609-5.827,5.827v8.586h-79.243l26.212,45.304
		c2.747,4.747,7.815,7.67,13.3,7.67h39.731v8.581c0,3.218,2.609,5.827,5.827,5.827h0.006c1.545,0,3.028-0.614,4.12-1.707
		l35.204-35.204c2.276-2.276,2.276-5.966-0.001-8.241l-22.236-22.23l-12.699-12.705
		C240.576,300.514,239.092,299.899,237.546,299.899z"/>
	<path style="fill:#34E184;" d="M241.178,242.083l0.134-0.233c1.604-2.79,0.642-6.353-2.149-7.956l-7.445-4.278l39.495-68.713
		v-0.506h-48.835c-7.643,0-14.694,4.113-18.457,10.765l-18.129,32.049l-7.442-4.276c-2.79-1.603-6.351-0.642-7.955,2.148
		l-0.003,0.006c-0.771,1.34-0.977,2.931-0.574,4.424l4.683,17.345l8.291,30.717c0.839,3.107,4.037,4.946,7.144,4.107l47.708-12.877
		C239.136,244.403,240.408,243.424,241.178,242.083z"/>
	<path style="fill:#34E184;" d="M350.546,245.255l7.446-4.28c2.791-1.604,3.752-5.168,2.147-7.958l0,0
		c-0.77-1.339-2.04-2.317-3.531-2.719l-48.071-12.981c-3.107-0.839-6.306,1-7.145,4.107l-12.877,47.701
		c-0.403,1.492-0.196,3.083,0.574,4.423l0.135,0.235c1.604,2.79,5.165,3.752,7.955,2.149l7.441-4.276l39.495,68.706l0.497,0.282
		l24.293-42.351c3.752-6.541,3.748-14.582-0.01-21.119L350.546,245.255z"/>
</g>
<path d="M377.564,272.188l-13.396-23.302c3.043-2.123,5.223-5.217,6.201-8.842c1.101-4.083,0.546-8.35-1.564-12.02
	c-2.108-3.661-5.516-6.283-9.591-7.383l-13.345-3.604l-29.309-50.988c-5.551-9.654-15.917-15.652-27.054-15.652l-67.127-0.001
	c-11.227,0-21.634,6.07-27.161,15.842l-13.206,23.347c-7.335-3.35-16.185-0.616-20.284,6.511c-0.021,0.037-0.043,0.074-0.063,0.112
	c-2.06,3.644-2.592,7.87-1.5,11.91l3.603,13.348l-29.328,51.017c-5.53,9.622-5.515,21.568,0.044,31.179l35.276,60.963
	c4.52,7.811,12.933,12.662,21.955,12.662h29.795c0.72,8.064,7.516,14.408,15.77,14.408c4.228,0,8.202-1.646,11.192-4.636
	l9.772-9.772h58.8c11.146,0,21.518-6.007,27.067-15.677l33.467-58.344C383.077,293.679,383.072,281.77,377.564,272.188z
	 M299.22,176.019l19.34,33.646l-7.418-2.003c-4.083-1.103-8.349-0.549-12.014,1.559c-3.665,2.106-6.291,5.515-7.393,9.597
	l-1.904,7.052l-22.213-38.644l9.673-16.826h12.214C293.504,170.398,297.228,172.553,299.22,176.019z M248.74,294.536
	c-2.99-2.99-6.966-4.637-11.193-4.637h-0.273c-8.25,0-15.047,6.347-15.765,14.413h-21.187l26.58-46.25l13.353-3.604
	c4.078-1.103,7.484-3.726,9.591-7.387l0.137-0.237c2.107-3.666,2.66-7.934,1.558-12.016c-0.979-3.623-3.157-6.715-6.198-8.837
	l10.744-18.692c7.565,13.159,18.535,32.246,26.375,45.885l-3.602,13.344c-1.101,4.082-0.546,8.348,1.552,11.995l0.144,0.252
	c4.112,7.15,12.998,9.882,20.348,6.484l10.957,19.062h-53.342L248.74,294.536z M188.434,212.857
	c2.569-0.704,4.752-2.403,6.063-4.722l18.129-32.05c1.984-3.509,5.722-5.688,9.753-5.688h31.844l-31.174,54.235
	c-1.321,2.3-1.676,5.03-0.984,7.591c0.591,2.187,1.902,4.096,3.704,5.43l-8.038,2.169c-0.027,0.007-0.054,0.014-0.081,0.022
	l-26.29,7.096l-7.187-26.621c-0.012-0.045-0.024-0.089-0.036-0.134l-2.078-7.696C184.076,213.3,186.314,213.438,188.434,212.857z
	 M151.778,282.45l19.359-33.676l1.999,7.406c1.102,4.082,3.727,7.49,7.393,9.598c2.433,1.398,5.13,2.113,7.863,2.113
	c1.384,0,2.776-0.184,4.148-0.554l7.058-1.905l-22.345,38.881h-19.289l-6.171-10.665
	C149.798,290.196,149.792,285.905,151.778,282.45z M231.445,357.287h-39.731c-1.908,0-3.688-1.026-4.645-2.679l-17.528-30.296
	h61.904c5.133,0,9.363-3.867,9.935-8.848l5.81,5.81c0.073,0.075,0.147,0.149,0.222,0.222l19.169,19.167l-19.55,19.551l-0.002,0.002
	l-5.679,5.679C240.673,361.031,236.496,357.287,231.445,357.287z M317.043,357.287h-38.801l5.433-5.434
	c2.989-2.989,4.635-6.964,4.634-11.191c0-4.228-1.647-8.202-4.637-11.191l-5.158-5.158h44.839l6.067,10.553l3.491,6.073
	l-6.148,10.717C324.771,355.13,321.047,357.287,317.043,357.287z M360.23,293.315l-15.796,27.536l-31.146-54.181
	c-1.85-3.218-5.217-5.019-8.68-5.019c-1.325,0-2.666,0.265-3.94,0.814l9.289-34.409l34.448,9.303
	c-3.882,3.011-5.048,8.499-2.53,12.878l18.349,31.918C362.202,285.597,362.204,289.873,360.23,293.315z"/>
<path d="M372.471,421.52c-0.65,0-1.31-0.069-1.96-0.2c-0.63-0.13-1.26-0.319-1.87-0.569c-0.6-0.25-1.18-0.561-1.72-0.92
	c-0.55-0.36-1.061-0.78-1.521-1.24s-0.88-0.97-1.25-1.521c-0.359-0.54-0.67-1.119-0.92-1.729c-0.25-0.6-0.439-1.23-0.569-1.87
	s-0.19-1.3-0.19-1.95c0-0.649,0.061-1.31,0.19-1.96c0.13-0.63,0.319-1.26,0.569-1.87c0.25-0.6,0.561-1.18,0.92-1.72
	c0.37-0.55,0.79-1.06,1.25-1.52s0.971-0.881,1.521-1.24c0.54-0.36,1.12-0.67,1.72-0.92c0.61-0.25,1.24-0.45,1.87-0.57
	c1.29-0.26,2.62-0.26,3.91,0c0.64,0.12,1.27,0.32,1.87,0.57c0.609,0.25,1.189,0.56,1.729,0.92c0.55,0.359,1.061,0.78,1.521,1.24
	s0.88,0.97,1.24,1.52c0.359,0.54,0.67,1.12,0.92,1.72c0.25,0.61,0.439,1.24,0.569,1.87c0.13,0.65,0.2,1.311,0.2,1.96
	c0,0.65-0.07,1.311-0.2,1.95s-0.319,1.271-0.569,1.87c-0.25,0.61-0.561,1.189-0.92,1.729c-0.36,0.551-0.78,1.061-1.24,1.521
	s-0.971,0.88-1.521,1.24c-0.54,0.359-1.12,0.67-1.729,0.92c-0.601,0.25-1.23,0.439-1.87,0.569
	C373.781,421.45,373.121,421.52,372.471,421.52z"/>
<path d="M332.469,421.521H139.533c-5.522,0-10-4.478-10-10s4.478-10,10-10H332.47c5.522,0,10,4.478,10,10
	S337.991,421.521,332.469,421.521z"/>
<g>
</g>
<g>
</g>
<g>
</g>
<g>
</g>
<g>
</g>
<g>
</g>
<g>
</g>
<g>
</g>
<g>
</g>
<g>
</g>
<g>
</g>
<g>
</g>
<g>
</g>
<g>
</g>
<g>
</g>
</svg>
